# xmcd
#
# Track frame offsets:
#       150
#       17960
#       28038
#       41539
#       54971
#       64356
#       75146
#       89177
#       101946
#       114833
#       126874
#       139029
#       154025
#       168014
#       183163
#       198998
#       209490
#       222769
#       238414
#       250183
#       264217
#       281031
#       293319
#       307033
#       321904
#       337039
#
# Disc length: 4703 seconds
#
# Revision: 14
# Processed by: cddbd v1.5.2PL0 Copyright (c) Steve Scherf et al.
# Submitted via: FreeDbEdit v0.1
#
DISCID=78125d1a
DTITLE=George Strait - 50 Number Ones [CD1]
DYEAR=2004
DGENRE=Country
TTITLE0=I Hate Everything (Alternate Version)
TTITLE1=Fool Hearted Memory (Edit)
TTITLE2=A Fire I Can't Put Out
TTITLE3=You Look So Good in Love
TTITLE4=Right or Wrong
TTITLE5=Let's Fall to Pieces Together (Edit)
TTITLE6=Does Fort Worth Ever Cross Your Mind
TTITLE7=The Chair
TTITLE8=Nobody in His Right Mind Would've Left Her
TTITLE9=It Ain't Cool to Be Crazy About You
TTITLE10=Ocean Front Property (Edit)
TTITLE11=All My Ex's Live in Texas
TTITLE12=Am I Blue
TTITLE13=Famous Last Words of a Fool (Edit)
TTITLE14=Baby Blue
TTITLE15=If You Ain't Lovin' (You Ain't Livin')
TTITLE16=Baby's Gotten Good at Goodbye (Edit)
TTITLE17=What's Going on in Your World
TTITLE18=Ace in the Hole
TTITLE19=Love Without End, Amen
TTITLE20=I've Come to Expect It From You
TTITLE21=If I Know Me
TTITLE22=You Know Me Better Than That
TTITLE23=The Chill of an Early Fall (Edit)
TTITLE24=So Much Like My Dad
TTITLE25=I Cross My Heart
EXTD=YEAR: 2004
EXTT0=
EXTT1=
EXTT2=
EXTT3=
EXTT4=
EXTT5=
EXTT6=
EXTT7=
EXTT8=
EXTT9=
EXTT10=
EXTT11=
EXTT12=
EXTT13=
EXTT14=
EXTT15=
EXTT16=
EXTT17=
EXTT18=
EXTT19=
EXTT20=
EXTT21=
EXTT22=
EXTT23=
EXTT24=
EXTT25=
PLAYORDER=
